<svg width="25" height="19" viewBox="0 0 25 19" fill="none" xmlns="http://www.w3.org/2000/svg">
<path d="M21.1636 1.69206C19.5701 0.97476 17.8614 0.446284 16.0749 0.143604C16.0424 0.137762 16.0099 0.152361 15.9931 0.181558C15.7733 0.565017 15.5299 1.06527 15.3595 1.45847C13.4379 1.17623 11.5262 1.17623 9.64408 1.45847C9.47359 1.05653 9.22134 0.565017 9.0006 0.181558C8.98384 0.153335 8.95134 0.138736 8.9188 0.143604C7.13324 0.445317 5.42454 0.973793 3.83014 1.69206C3.81634 1.6979 3.80451 1.70764 3.79666 1.72029C0.555616 6.47077 -0.33224 11.1045 0.103313 15.6808C0.105283 15.7031 0.118094 15.7246 0.135831 15.7382C2.27418 17.2788 4.34553 18.2142 6.37842 18.8341C6.41095 18.8438 6.44542 18.8322 6.46613 18.8059C6.94701 18.1616 7.37567 17.4823 7.7432 16.7679C7.76489 16.726 7.74419 16.6764 7.69986 16.6598C7.01993 16.4068 6.3725 16.0983 5.74972 15.7479C5.70046 15.7197 5.69651 15.6506 5.74183 15.6175C5.87289 15.5211 6.00398 15.4209 6.12912 15.3197C6.15176 15.3012 6.18331 15.2973 6.20993 15.309C10.3013 17.1416 14.7308 17.1416 18.7739 15.309C18.8005 15.2963 18.8321 15.3002 18.8557 15.3187C18.9809 15.4199 19.1119 15.5211 19.244 15.6175C19.2893 15.6506 19.2863 15.7197 19.2371 15.7479C18.6143 16.1051 17.9669 16.4068 17.2859 16.6589C17.2416 16.6754 17.2219 16.726 17.2436 16.7679C17.619 17.4813 18.0477 18.1606 18.5197 18.8049C18.5394 18.8322 18.5749 18.8438 18.6074 18.8341C20.6501 18.2142 22.7215 17.2788 24.8598 15.7382C24.8786 15.7246 24.8904 15.7041 24.8924 15.6817C25.4136 10.3911 24.0193 5.79534 21.1961 1.72125C21.1892 1.70764 21.1774 1.6979 21.1636 1.69206ZM8.35419 12.8943C7.12239 12.8943 6.10743 11.7848 6.10743 10.4222C6.10743 9.05964 7.10271 7.95014 8.35419 7.95014C9.61549 7.95014 10.6206 9.06938 10.6009 10.4222C10.6009 11.7848 9.60563 12.8943 8.35419 12.8943ZM16.6612 12.8943C15.4294 12.8943 14.4145 11.7848 14.4145 10.4222C14.4145 9.05964 15.4097 7.95014 16.6612 7.95014C17.9225 7.95014 18.9276 9.06938 18.908 10.4222C18.908 11.7848 17.9225 12.8943 16.6612 12.8943Z" fill="white"/>
</svg>
