<svg width="25" height="19" viewBox="0 0 25 19" fill="none" xmlns="http://www.w3.org/2000/svg">
<path d="M21.1636 1.69194C19.5701 0.974638 17.8614 0.446162 16.0749 0.143482C16.0424 0.13764 16.0099 0.152239 15.9931 0.181436C15.7733 0.564895 15.5299 1.06515 15.3595 1.45834C13.4379 1.17611 11.5262 1.17611 9.64408 1.45834C9.47359 1.05641 9.22134 0.564895 9.0006 0.181436C8.98384 0.153213 8.95134 0.138614 8.9188 0.143482C7.13324 0.445195 5.42454 0.973671 3.83014 1.69194C3.81634 1.69778 3.80451 1.70752 3.79666 1.72016C0.555616 6.47065 -0.33224 11.1044 0.103313 15.6806C0.105283 15.703 0.118094 15.7244 0.135831 15.7381C2.27418 17.2787 4.34553 18.214 6.37842 18.834C6.41095 18.8437 6.44542 18.8321 6.46613 18.8058C6.94701 18.1615 7.37567 17.4822 7.7432 16.7678C7.76489 16.7259 7.74419 16.6763 7.69986 16.6597C7.01993 16.4067 6.3725 16.0982 5.74972 15.7478C5.70046 15.7196 5.69651 15.6504 5.74183 15.6174C5.87289 15.521 6.00398 15.4208 6.12912 15.3195C6.15176 15.3011 6.18331 15.2972 6.20993 15.3088C10.3013 17.1415 14.7308 17.1415 18.7739 15.3088C18.8005 15.2962 18.8321 15.3001 18.8557 15.3186C18.9809 15.4198 19.1119 15.521 19.244 15.6174C19.2893 15.6504 19.2863 15.7196 19.2371 15.7478C18.6143 16.105 17.9669 16.4067 17.2859 16.6588C17.2416 16.6753 17.2219 16.7259 17.2436 16.7678C17.619 17.4811 18.0477 18.1605 18.5197 18.8048C18.5394 18.8321 18.5749 18.8437 18.6074 18.834C20.6501 18.214 22.7215 17.2787 24.8598 15.7381C24.8786 15.7244 24.8904 15.704 24.8924 15.6816C25.4136 10.3909 24.0193 5.79522 21.1961 1.72113C21.1892 1.70752 21.1774 1.69778 21.1636 1.69194ZM8.35419 12.8942C7.12239 12.8942 6.10743 11.7847 6.10743 10.4221C6.10743 9.05952 7.10271 7.95002 8.35419 7.95002C9.61549 7.95002 10.6206 9.06926 10.6009 10.4221C10.6009 11.7847 9.60563 12.8942 8.35419 12.8942ZM16.6612 12.8942C15.4294 12.8942 14.4145 11.7847 14.4145 10.4221C14.4145 9.05952 15.4097 7.95002 16.6612 7.95002C17.9225 7.95002 18.9276 9.06926 18.908 10.4221C18.908 11.7847 17.9225 12.8942 16.6612 12.8942Z" fill="#5865F2"/>
</svg>
