<svg width="22" height="13" viewBox="0 0 22 13" fill="none" xmlns="http://www.w3.org/2000/svg">
<path d="M6.21469 13C9.64697 13 12.4294 10.0899 12.4294 6.5C12.4294 2.91015 9.64697 0 6.21469 0C2.78241 0 0 2.91015 0 6.5C0 10.0899 2.78241 13 6.21469 13Z" fill="white"/>
<path d="M16.1086 12.6879C17.8247 12.6879 19.2159 9.92325 19.2159 6.51289C19.2159 3.10253 17.8247 0.337891 16.1086 0.337891C14.3924 0.337891 13.0012 3.10253 13.0012 6.51289C13.0012 9.92325 14.3924 12.6879 16.1086 12.6879Z" fill="white"/>
<path d="M20.9063 12.0382C21.5104 12.0382 22.0001 9.57036 22.0001 6.52616C22.0001 3.48197 21.5104 1.01416 20.9063 1.01416C20.3022 1.01416 19.8125 3.48197 19.8125 6.52616C19.8125 9.57036 20.3022 12.0382 20.9063 12.0382Z" fill="white"/>
</svg>
