<svg width="23" height="19" viewBox="0 0 23 19" fill="none" xmlns="http://www.w3.org/2000/svg">
<path d="M20.5841 4.7772C20.598 4.97931 20.598 5.18141 20.598 5.38538C20.598 11.6004 15.8867 18.7683 7.27193 18.7683V18.7646C4.72709 18.7683 2.23511 18.0362 0.0927734 16.6559C0.462814 16.7006 0.834709 16.723 1.20753 16.7239C3.31648 16.7258 5.36515 16.0151 7.02431 14.7066C5.02015 14.6684 3.26269 13.3561 2.64874 11.4402C3.3508 11.5762 4.07419 11.5483 4.76326 11.3592C2.57826 10.9159 1.00628 8.98793 1.00628 6.74891C1.00628 6.72842 1.00628 6.70886 1.00628 6.68931C1.65733 7.05347 2.38628 7.25558 3.13193 7.27793C1.07398 5.89671 0.439628 3.1473 1.68237 0.997687C4.06027 3.93617 7.5687 5.72254 11.335 5.91161C10.9575 4.27798 11.4731 2.56612 12.6899 1.41774C14.5763 -0.363048 17.5431 -0.271774 19.3163 1.62171C20.3652 1.41401 21.3706 1.02749 22.2906 0.479844C21.9409 1.56862 21.2092 2.49347 20.2317 3.08117C21.16 2.97127 22.067 2.72166 22.9212 2.34073C22.2924 3.287 21.5004 4.11127 20.5841 4.7772Z" fill="white"/>
</svg>
